<svg  width="30" height="30" viewBox="0 -16 511.99999 511" xmlns="http://www.w3.org/2000/svg"><path d="m501.214844 256.285156-32.382813-9.753906 32.382813-9.757812c6.289062-1.890626 10.640625-7.621094 10.78125-14.1875.140625-6.566407-3.960938-12.476563-10.164063-14.636719l-160.300781-55.898438c-3.019531-1.054687-6.296875-1.125-9.363281-.203125l-76.167969 22.953125-76.167969-22.953125c-3.066406-.925781-6.34375-.855468-9.367187.203125l-160.296875 55.898438c-6.203125 2.160156-10.304688 8.070312-10.16406275 14.636719.14062475 6.566406 4.49218775 12.292968 10.78124975 14.1875l32.382813 9.753906-32.382813 9.757812c-6.289062 1.890625-10.640625 7.621094-10.78124975 14.1875-.14062525 6.566406 3.96093775 12.476563 10.16406275 14.636719l70.378906 24.542969v98.949218c0 6.445313 4.074219 12.1875 10.160156 14.3125l160.03125 55.890626c1.605469.5625 3.304688.847656 5.003907.847656.046874 0 .09375-.003906.140624-.003906.035157 0 .074219.003906.113282.003906 2.269531 0 4.410156-.511719 6.34375-1.402344l158.941406-55.332031c6.089844-2.121094 10.171875-7.863281 10.171875-14.316407v-98.949218l70.378906-24.542969c6.203125-2.160156 10.304688-8.070313 10.164063-14.636719s-4.492188-12.292968-10.78125-14.1875zm-245.214844-49.597656 69.835938 24.351562 44.425781 15.492188-114.261719 39.839844-114.257812-39.839844 68.015624-23.71875zm-160.632812 55.78125 111.582031 38.90625-31.148438 9.386719-111.585937-38.910157zm240.835937 48.296875-31.152344-9.386719 111.585938-38.910156 31.148437 9.382812zm0-128.46875 111.582031 38.910156-31.148437 9.386719-111.585938-38.910156zm-160.402344 0 31.148438 9.386719-111.582031 38.90625-31.152344-9.382813zm-64.9375 137.925781 59.605469 20.789063c1.613281.5625 3.300781.84375 4.988281.84375 1.472657 0 2.949219-.214844 4.375-.644531l61.007813-18.382813v120.410156l-129.976563-45.398437zm290.273438 77.605469-129.980469 45.25v-120.25l61.011719 18.382813c1.429687.433593 2.902343.648437 4.375.648437 1.6875 0 3.375-.285156 4.992187-.847656l59.601563-20.785157zm0 0"/><path d="m96.035156 29.90625 25.324219 9.21875c1.710937.621094 3.460937.914062 5.183594.914062 6.191406 0 12.003906-3.820312 14.246093-9.976562 2.863282-7.867188-1.195312-16.566406-9.0625-19.429688l-25.320312-9.214843c-7.867188-2.859375-16.566406 1.191406-19.429688 9.058593-2.863281 7.867188 1.195313 16.566407 9.058594 19.429688zm0 0"/><path d="m91.953125 83.378906h26.949219c8.371094 0 15.15625-6.785156 15.15625-15.15625s-6.785156-15.160156-15.15625-15.160156h-26.949219c-8.371094 0-15.160156 6.789062-15.160156 15.160156s6.789062 15.15625 15.160156 15.15625zm0 0"/><path d="m121.359375 97.320312-25.324219 9.21875c-7.867187 2.863282-11.921875 11.558594-9.058594 19.429688 2.238282 6.152344 8.050782 9.976562 14.246094 9.976562 1.71875 0 3.46875-.296874 5.179688-.917968l25.324218-9.21875c7.867188-2.863282 11.921876-11.558594 9.058594-19.429688-2.859375-7.867187-11.558594-11.921875-19.425781-9.058594zm0 0"/><path d="m379.738281 125.808594 25.320313 9.21875c1.714844.621094 3.464844.917968 5.183594.917968 6.191406 0 12.003906-3.824218 14.246093-9.980468 2.863281-7.867188-1.191406-16.5625-9.058593-19.429688l-25.324219-9.214844c-7.867188-2.863281-16.566407 1.191407-19.429688 9.058594-2.863281 7.867188 1.195313 16.566406 9.0625 19.429688zm0 0"/><path d="m392.5625 53.0625c-8.371094 0-15.15625 6.789062-15.15625 15.160156s6.785156 15.15625 15.15625 15.15625h26.949219c8.371093 0 15.160156-6.785156 15.160156-15.15625s-6.789063-15.160156-15.160156-15.160156zm0 0"/><path d="m384.921875 40.039062c1.722656 0 3.472656-.292968 5.183594-.914062l25.324219-9.21875c7.867187-2.863281 11.921874-11.5625 9.058593-19.429688-2.863281-7.863281-11.5625-11.921874-19.429687-9.058593l-25.320313 9.214843c-7.867187 2.863282-11.925781 11.5625-9.0625 19.429688 2.242188 6.15625 8.054688 9.976562 14.246094 9.976562zm0 0"/><path d="m256 152.671875c-2.496094 0-4.988281-.617187-7.25-1.847656-.730469-.398438-18.105469-9.929688-35.574219-25.574219-25.054687-22.4375-37.761719-45.746094-37.761719-69.277344 0-27.507812 22.382813-49.886718 49.890626-49.886718 11.34375 0 22.082031 3.816406 30.695312 10.546874 8.613281-6.726562 19.351562-10.546874 30.695312-10.546874 27.507813 0 49.886719 22.378906 49.886719 49.886718 0 23.53125-12.703125 46.839844-37.757812 69.277344-17.46875 15.640625-34.84375 25.175781-35.574219 25.574219-2.257812 1.230469-4.753906 1.847656-7.25 1.847656zm-30.695312-116.269531c-10.792969 0-19.570313 8.777344-19.570313 19.570312 0 26.390625 31.554687 52 50.246094 63.90625 18.695312-11.957031 50.285156-37.644531 50.285156-63.90625 0-10.792968-8.777344-19.570312-19.570313-19.570312-7.261718 0-13.890624 3.996094-17.304687 10.425781-2.628906 4.957031-7.78125 8.054687-13.390625 8.054687s-10.761719-3.097656-13.390625-8.054687c-3.414063-6.429687-10.042969-10.425781-17.304687-10.425781zm0 0"/></svg>