<svg height="35" viewBox="0 0 512 512" width="35" xmlns="http://www.w3.org/2000/svg"><g id="filled_outline" data-name="filled outline"><path d="m232 80h48v48h-48z" fill="#ea9d2d"/><path d="m256 96a8 8 0 0 1 -8-8v-25.371a24 24 0 1 1 32-22.629 8 8 0 0 1 -16 0 8 8 0 1 0 -8 8 8 8 0 0 1 8 8v32a8 8 0 0 1 -8 8z" fill="#c3c3c3"/><path d="m392 424a32 32 0 1 0 32 32 32 32 0 0 0 -32-32" fill="#e4e4e2"/><circle cx="120" cy="456" fill="#e4e4e2" r="32"/><path d="m392 496a40 40 0 1 1 40-40 40.045 40.045 0 0 1 -40 40zm0-64a24 24 0 1 0 24 24 24.028 24.028 0 0 0 -24-24z" fill="#428dc5"/><path d="m120 496a40 40 0 1 1 40-40 40.045 40.045 0 0 1 -40 40zm0-64a24 24 0 1 0 24 24 24.028 24.028 0 0 0 -24-24z" fill="#428dc5"/><path d="m136 384v57.54a14.464 14.464 0 0 1 -27.76 5.69l-13.38-31.23-6.86-16v-16z" fill="#c3c3c3"/><path d="m440 376h-368a8 8 0 0 1 -8-8v-192a8 8 0 0 1 8-8h368a8 8 0 0 1 8 8v192a8 8 0 0 1 -8 8zm-360-16h352v-176h-352z" fill="#4799cf"/><path d="m424 296h-56v-48h56a8 8 0 0 0 0-16h-56v-56a8 8 0 0 0 -16 0v56h-56v-56a8 8 0 0 0 -16 0v56h-48v-56a8 8 0 0 0 -16 0v56h-56v-56a8 8 0 0 0 -16 0v56h-56a8 8 0 0 0 0 16h56v48h-56a8 8 0 0 0 0 16h56v56a8 8 0 0 0 16 0v-56h56v56a8 8 0 0 0 16 0v-56h48v56a8 8 0 0 0 16 0v-56h56v56a8 8 0 0 0 16 0v-56h56a8 8 0 0 0 0-16zm-264 0v-48h56v48zm72 0v-48h48v48zm64 0v-48h56v48z" fill="#4799cf"/><g fill="#c3c3c3"><path d="m29.65 124.714 26.35 52.701v198.585h32v-198.585l-32.75-65.5a14.311 14.311 0 0 0 -20.738-5.507 14.309 14.309 0 0 0 -4.862 18.306z"/><path d="m482.35 124.714-26.35 52.701v198.585h-32v-198.585l32.75-65.5a14.311 14.311 0 0 1 20.738-5.507 14.309 14.309 0 0 1 4.862 18.306z"/><path d="m424 384v16l-6.86 16-13.38 31.23a14.466 14.466 0 0 1 -27.76-5.69v-57.54z"/></g><path d="m376 216-25.85 4.31-6.99 1.16-15.16 2.53v112h-144v-112l-15.16-2.53-32.84-5.47 20.04-92.13a60.006 60.006 0 0 1 49.48-40.56l26.48-3.31v16a24 24 0 0 0 48 0v-16l22.52 3.31a60.006 60.006 0 0 1 49.48 40.56z" fill="#fbb540"/><path d="m184 200h144v56h-144z" fill="#fd9226"/><path d="m232 80h48v16h-48z" fill="#bd9070"/><path d="m343.16 221.47-15.16 2.53v-56z" fill="#ea9d2d"/><path d="m184 168v56l-15.16-2.53z" fill="#ea9d2d"/><path d="m56 360h32v16h-32z" fill="#a8a8a8"/><path d="m424 360h32v16h-32z" fill="#a8a8a8"/><rect fill="#985713" height="32" rx="16" width="416" x="48" y="368"/><path d="m136 400v16h-41.14l-6.86-16z" fill="#a8a8a8"/><path d="m424 400-6.86 16h-41.14v-16z" fill="#a8a8a8"/><path d="m248 64h16v16h-16z" fill="#a8a8a8"/><path d="m48 384h416a0 0 0 0 1 0 0 16 16 0 0 1 -16 16h-384a16 16 0 0 1 -16-16 0 0 0 0 1 0 0z" fill="#834b10"/><path d="m481.927 99.751a22.312 22.312 0 0 0 -32.332 8.585l-29.832 59.664h-47.985l-12.148-38.532c-.013-.042-.026-.083-.04-.124a68.341 68.341 0 0 0 -55.99-45.962l-22.438-3.3c-.387-.054-17.162-.082-17.162-.082v-24a8 8 0 0 0 -8-8 8 8 0 1 1 8-8 8 8 0 0 0 16 0 24 24 0 1 0 -32 22.629v17.371s-16.661.02-16.992.062l-26.479 3.309a68.343 68.343 0 0 0 -56.077 45.973c-.054.162-.1.327-.146.492l-10.048 38.164h-46.021l-29.832-59.664a22.311 22.311 0 0 0 -39.911 19.956l25.506 51.008v186.831a23.986 23.986 0 0 0 16 41.869h18.725l8.626 20.126a39.99 39.99 0 1 0 52.649-4.1v-16.026h224v16.022a40.012 40.012 0 1 0 52.65 4.105l8.626-20.127h18.724a23.986 23.986 0 0 0 16-41.869v-186.831l25.506-51.012a22.346 22.346 0 0 0 -7.579-28.537zm-113.927 260.249v-48h48v48zm-72 0v-16h32a8 8 0 0 0 8-8v-24h16v48zm-64 0v-16h48v16zm-72 0v-48h16v24a8 8 0 0 0 8 8h32v16zm-64 0v-48h48v48zm80-130.234v2.234h-16v-7.567zm16-21.766h128v40h-128zm224 88h-48v-48h48zm-64 0h-16v-48h16zm-160 32v-64h128v64zm144-96v-2.234l16-5.333v7.567zm-160 16v48h-16v-48zm-32 48h-48v-48h48zm272-112v48h-48v-12.9l10.53-3.51a8 8 0 0 0 5.1-10l-6.808-21.59zm-176-88h32v8a16 16 0 0 1 -32 0zm-33.486 3.248 17.486-2.186v6.938a32 32 0 0 0 64 0v-6.738l13.358 1.963.171.023a52.259 52.259 0 0 1 42.862 35.1l21.609 68.552-30 10v-44.9h-16v24h-128v-24h-16v44.9l-30.354-10.118 18.064-68.614a52.262 52.262 0 0 1 42.804-34.92zm-73.044 116.342 10.53 3.51v12.9h-48v-48h38.046l-5.782 21.963a8 8 0 0 0 5.206 9.627zm-96.665-94.454a6.321 6.321 0 0 1 2.145-8.073 6.312 6.312 0 0 1 9.145 2.429l26.253 52.508h-14.111zm27.195 62.864h16v176h-16zm56 296a23.983 23.983 0 0 1 -21.373-34.9l2.264 5.282a22.459 22.459 0 0 0 41.951-1.744 23.994 23.994 0 0 1 -22.842 31.362zm-8.854-46.3a23.924 23.924 0 0 1 16.854-.324v8.161a6.463 6.463 0 0 1 -12.4 2.546zm16.854-16.895a39.986 39.986 0 0 0 -23.157 2.186l-4.711-10.991h27.868zm256 16.571a23.924 23.924 0 0 1 16.854.324l-4.45 10.383a6.463 6.463 0 0 1 -12.4-2.546zm32 22.624a24 24 0 1 1 -46.842-7.358 22.46 22.46 0 0 0 41.952 1.744l2.264-5.281a23.855 23.855 0 0 1 2.626 10.895zm-8.843-37.009a39.986 39.986 0 0 0 -23.157-2.186v-8.805h27.868zm40.843-26.991h-384a8 8 0 0 1 0-16h384a8 8 0 0 1 0 16zm-16-32v-176h16v176zm43.2-238.864-23.437 46.864h-14.111l26.253-52.508a6.313 6.313 0 0 1 9.146-2.429 6.322 6.322 0 0 1 2.149 8.073z"/></g></svg>