<svg id="Layer_2" height="30" viewBox="0 0 128 128" width="30" xmlns="http://www.w3.org/2000/svg" data-name="Layer 2"><g fill="rgb(0,0,0)"><path d="m109.083 34.825a1.738 1.738 0 0 0 -.09-.554l-5.493-16.429v-11.092a6.758 6.758 0 0 0 -6.747-6.75h-65.506a6.758 6.758 0 0 0 -6.747 6.75v11.092l-5.49 16.429a1.738 1.738 0 0 0 -.09.554 10.421 10.421 0 0 0 5.58 9.218v77.206a6.758 6.758 0 0 0 6.75 6.75h65.503a6.758 6.758 0 0 0 6.75-6.75v-77.206a10.421 10.421 0 0 0 5.58-9.218zm-81.083-28.075a3.254 3.254 0 0 1 3.25-3.25h65.503a3.254 3.254 0 0 1 3.247 3.25v9.626h-72zm72 114.499a3.254 3.254 0 0 1 -3.25 3.25h-65.503a3.254 3.254 0 0 1 -3.25-3.25v-17.632h72.003zm0-76.094v54.962h-72v-54.962l1.336.087a10.417 10.417 0 0 0 8.664-4.642 10.41 10.41 0 0 0 17.333 0 10.411 10.411 0 0 0 17.334 0 10.41 10.41 0 0 0 17.333 0 10.417 10.417 0 0 0 8.667 4.643zm1.14-3.877a7.105 7.105 0 0 1 -2.476.464 6.925 6.925 0 0 1 -6.917-6.917 1.75 1.75 0 0 0 -3.5 0 6.917 6.917 0 1 1 -13.833 0 1.75 1.75 0 0 0 -3.5 0 6.917 6.917 0 0 1 -13.834 0 1.75 1.75 0 0 0 -3.5 0 6.917 6.917 0 1 1 -13.833 0 1.75 1.75 0 0 0 -3.5 0 6.917 6.917 0 0 1 -13.828.269l5.085-15.218h72.986l5.085 15.218a6.925 6.925 0 0 1 -4.432 6.184z"/><path d="m51.392 120.2h25.216a6.142 6.142 0 1 0 0-12.283h-25.216a6.142 6.142 0 1 0 0 12.283zm0-8.783h25.216a2.642 2.642 0 1 1 0 5.283h-25.216a2.642 2.642 0 1 1 0-5.283z"/><path d="m91.745 53.253h-55.49a1.751 1.751 0 0 0 -1.75 1.747v17.336a1.75 1.75 0 0 0 1.75 1.75h55.49a1.75 1.75 0 0 0 1.75-1.75v-17.336a1.751 1.751 0 0 0 -1.75-1.747zm-1.745 17.333h-51.995v-13.833h51.995z"/><path d="m91.745 79.253h-55.49a1.75 1.75 0 0 0 0 3.5h55.49a1.75 1.75 0 0 0 0-3.5z"/><path d="m69.333 89.42h-33.078a1.75 1.75 0 0 0 0 3.5h33.078a1.75 1.75 0 0 0 0-3.5z"/><path d="m70.125 8.188h-12.25a1.75 1.75 0 0 0 0 3.5h12.25a1.75 1.75 0 0 0 0-3.5z"/></g></svg>